<?xml version="1.0" encoding="UTF-8" standalone="no"?>
<!DOCTYPE svg PUBLIC "-//W3C//DTD SVG 1.1//EN" "http://www.w3.org/Graphics/SVG/1.1/DTD/svg11.dtd">
<svg width="100%" height="100%" viewBox="0 0 512 512" version="1.1" xmlns="http://www.w3.org/2000/svg" xmlns:xlink="http://www.w3.org/1999/xlink" xml:space="preserve" xmlns:serif="http://www.serif.com/" style="fill-rule:evenodd;clip-rule:evenodd;stroke-linejoin:round;stroke-miterlimit:2;">
    <g transform="matrix(757.098,0,0,757.098,48.9338,306.726)">
        <path d="M0.078,0.19C0.098,0.204 0.122,0.218 0.15,0.231C0.178,0.244 0.207,0.25 0.237,0.25C0.265,0.25 0.291,0.245 0.315,0.235C0.339,0.225 0.36,0.211 0.378,0.194C0.396,0.177 0.41,0.158 0.421,0.135C0.431,0.112 0.436,0.087 0.436,0.06L0.436,-0.296L0.512,-0.296L0.512,-0.375L0.367,-0.375C0.366,-0.366 0.365,-0.357 0.364,-0.35C0.363,-0.343 0.363,-0.335 0.363,-0.328C0.355,-0.341 0.34,-0.353 0.318,-0.366C0.295,-0.378 0.268,-0.384 0.236,-0.384C0.208,-0.384 0.182,-0.379 0.157,-0.368C0.132,-0.357 0.111,-0.343 0.093,-0.325C0.075,-0.307 0.061,-0.286 0.051,-0.262C0.04,-0.238 0.035,-0.213 0.035,-0.187C0.035,-0.16 0.04,-0.135 0.051,-0.112C0.061,-0.088 0.075,-0.067 0.093,-0.05C0.111,-0.032 0.132,-0.018 0.157,-0.008C0.182,0.003 0.208,0.008 0.236,0.008C0.254,0.008 0.27,0.006 0.285,0.003C0.3,-0 0.312,-0.005 0.323,-0.01C0.331,-0.014 0.338,-0.018 0.344,-0.023C0.35,-0.027 0.354,-0.031 0.356,-0.034C0.355,-0.03 0.354,-0.026 0.354,-0.021C0.353,-0.016 0.353,-0.013 0.353,-0.012L0.353,0.047C0.353,0.064 0.35,0.079 0.345,0.094C0.339,0.108 0.331,0.12 0.32,0.13C0.309,0.141 0.297,0.149 0.283,0.155C0.268,0.161 0.252,0.164 0.235,0.164C0.216,0.164 0.197,0.16 0.18,0.151C0.162,0.141 0.146,0.132 0.133,0.122L0.078,0.19ZM0.236,-0.303C0.251,-0.303 0.266,-0.301 0.279,-0.296C0.292,-0.291 0.304,-0.285 0.314,-0.277C0.326,-0.266 0.335,-0.254 0.343,-0.239C0.349,-0.224 0.353,-0.207 0.353,-0.188C0.353,-0.172 0.35,-0.157 0.345,-0.143C0.34,-0.129 0.332,-0.117 0.322,-0.107C0.312,-0.096 0.3,-0.088 0.285,-0.082C0.27,-0.075 0.254,-0.072 0.236,-0.072C0.219,-0.072 0.204,-0.075 0.191,-0.08C0.177,-0.085 0.165,-0.093 0.154,-0.102C0.143,-0.113 0.135,-0.125 0.129,-0.14C0.122,-0.155 0.119,-0.171 0.119,-0.188C0.119,-0.203 0.121,-0.218 0.126,-0.231C0.131,-0.244 0.138,-0.256 0.147,-0.266C0.157,-0.277 0.17,-0.286 0.185,-0.293C0.2,-0.3 0.217,-0.303 0.236,-0.303Z" style="fill:rgb(137,105,120);fill-rule:nonzero;"/>
    </g>
</svg>
