<svg viewBox="0 0 1024 512" xmlns="http://www.w3.org/2000/svg" fill-rule="evenodd" clip-rule="evenodd" stroke-linejoin="round" stroke-miterlimit="2"><path d="M680.67 359.316h52.564c-.052 1.637-.079 3.284-.079 4.937 0 20.837 4.026 40.136 11.953 57.923 7.9 17.722 18.956 33.42 33.174 47.092 13.74 13.211 29.97 23.657 48.73 31.279C845.726 508.15 865.882 512 887.498 512c20.684 0 39.9-3.624 57.666-10.764 17.584-7.066 33.192-16.668 46.84-28.781 7.942-7.05 8.819-18.823 2.003-26.89l-8.924-10.56c-3.656-4.328-9.049-6.962-14.84-7.248-5.79-.287-11.436 1.799-15.536 5.741-8.586 8.255-18.676 14.608-30.247 19.094-11.752 4.557-24.074 6.823-36.962 6.823-21.137 0-39.767-5.311-55.808-16.199-10.454-7.095-19.126-15.56-26.016-25.398a10916.316 10916.316 0 0192.116-35.589 10939.256 10939.256 0 00113.485-43.979c10.13-3.99 15.205-14.933 11.524-24.845-5.237-14.096-12.068-26.796-20.445-38.124-8.334-11.268-17.722-21.15-28.14-29.665-.097-.08-.195-.159-.295-.236-11.839-9.315-25.15-16.574-39.95-21.748-14.817-5.181-30.306-7.787-46.471-7.787-21.695 0-41.925 3.99-60.71 11.877-18.622 7.818-34.738 18.307-48.39 31.406-14.142 13.12-25.234 28.77-33.176 46.942h-64.553v-14.707a6276.804 6276.804 0 0060.341-62.169c34.218-35.754 70.034-72.276 107.445-109.566 3.684-3.67 5.741-8.572 5.741-13.672V92.095c0-10.876-9.168-19.692-20.48-19.692H641.39v-3.41c0-10.877-9.169-19.693-20.48-19.693h-13.73c-11.31 0-20.48 8.816-20.48 19.692v36.964c0 10.876 9.17 19.692 20.48 19.692h159.325a6374.174 6374.174 0 00-74.855 76.876c-3.64 3.805-7.3 7.618-10.98 11.443v-6.503c0-10.876-9.17-19.693-20.48-19.693h-67.96c-11.312 0-20.48 8.817-20.48 19.693v13.862c0 10.875 9.168 19.692 20.48 19.692h33.064v29.775a6909.402 6909.402 0 01-41.09 41.297c-3.683 3.67-5.741 8.572-5.741 13.673v13.86c0 10.877 9.17 19.693 20.48 19.693h25.728c-.994 7.17-3.181 13.89-6.617 20.14-5.186 9.442-11.838 17.56-19.99 24.329l-.053.044c-8.603 7.194-18.433 12.664-29.468 16.44-11.197 3.832-23.054 5.742-35.563 5.79-13.67-.665-24.426-4.16-31.752-11.804-7.338-7.657-11.35-16.725-12.084-27.186l-.001-112.351a156.396 156.396 0 0024.989-18.11c7.942-7.05 8.82-18.82 2.003-26.887l-8.924-10.561c-3.656-4.328-9.048-6.962-14.839-7.248a21.224 21.224 0 00-3.23.085v-4.533c0-10.876-9.168-19.693-20.48-19.693h-67.96c-11.31 0-20.48 8.817-20.48 19.693v13.862c0 10.875 9.17 19.692 20.48 19.692h31.946c-7.461 1.702-15.135 2.55-23.022 2.55-21.135 0-39.767-5.31-55.808-16.197-10.452-7.095-19.125-15.562-26.014-25.398a10857.448 10857.448 0 0192.114-35.589c37.6-14.328 75.427-28.988 113.485-43.979 10.13-3.99 15.205-14.934 11.524-24.845-5.235-14.098-12.068-26.797-20.445-38.124-8.334-11.269-17.722-21.15-28.14-29.665a17.46 17.46 0 00-.294-.236c-11.84-9.315-25.152-16.574-39.95-21.75C441.278 2.606 425.79 0 409.624 0c-21.695 0-41.925 3.99-60.71 11.877-.394.165-.789.332-1.183.502a284.98 284.98 0 00-10.31-3.04C314.83 3.132 290.875 0 265.552 0c-36.788 0-71.332 6.847-103.645 20.47-32.153 13.556-60.084 31.775-83.829 54.606-24.262 23.33-43.344 50.577-57.208 81.764C6.977 188.088 0 221.357 0 256.66c0 35.332 6.989 68.507 20.892 99.542 13.869 30.956 32.947 57.859 57.198 80.734 23.775 23.3 51.75 41.643 83.939 54.976C194.305 505.28 228.807 512 265.552 512c25.393 0 49.414-3.261 72.07-9.724 22.379-6.385 43.403-15.023 63.076-25.9 6.354-3.514 10.272-10.024 10.272-17.072V296.149c7.81-.059 15.407-.637 22.797-1.732v91.268c0 .262.005.525.015.787 1.142 27.421 10.78 49.489 28.177 66.49 17.53 17.133 41.566 26.344 72.604 26.344 29.742 0 56.403-7.367 80.037-21.922a142.728 142.728 0 0014.983-10.58l.548 9.302c.613 10.427 9.586 18.58 20.447 18.58h61.096c11.312 0 20.48-8.817 20.48-19.692V441.79c0-10.875-9.168-19.692-20.48-19.692H680.67v-62.783zM289.711 54.497a230.663 230.663 0 00-24.16-1.25c-29.126 0-56.388 5.259-81.769 15.86-25.368 10.598-47.42 25.28-66.134 44.073-.103.104-.206.206-.311.307-19.23 18.49-34.365 40.106-45.442 64.826-11.039 24.631-16.52 50.972-16.52 79.008 0 27.584 5.477 53.576 16.495 77.963 11.071 24.505 25.98 45.813 44.78 63.89l.16.154c18.755 18.436 40.86 32.944 66.286 43.565 25.343 10.585 52.143 15.86 80.395 15.86 18.852 0 36.971-2.1 54.356-6.328 13.262-3.227 25.846-7.699 37.746-13.424V322.558h-92.79c-11.31 0-20.479-8.816-20.479-19.693v-13.86c0-10.877 9.17-19.693 20.48-19.693h57.283a146.61 146.61 0 01-19.678-15.889c-14.218-13.671-25.275-29.37-33.174-47.093-7.928-17.786-11.954-37.087-11.954-57.922 0-20.261 3.972-39.506 11.874-57.74 5.818-13.429 13.35-25.486 22.556-36.17zm519.897 304.819c-7.054 2.753-14.112 5.515-21.174 8.286a85.927 85.927 0 01.154-8.286h21.02zm56.944-22.078l4.758-1.83a53365.135 53365.135 0 0084.218-32.475c-5.907-7.653-13.037-14.284-21.395-19.89-13.897-9.317-29.449-13.951-46.636-13.951-11.725 0-22.709 1.673-32.936 5.08 7.075 3.102 11.991 9.962 11.991 17.927v45.14zm-54.689-34.126v2.958h-2.377a91.833 91.833 0 012.377-2.958zM411.647 53.269a19.171 19.171 0 01-3.43 10.35L399.979 75.5c-6.134 8.847-18.461 11.415-27.853 5.802a186.494 186.494 0 00-20.174-10.44c-8.174 5.707-15.217 12.498-21.117 20.391l-.183.24c-8.805 11.412-14.795 24.404-18.05 38.945a85.68 85.68 0 00-2.04 21.318 13402.495 13402.495 0 0182.876-32.194 51062.759 51062.759 0 0084.22-32.475c-5.909-7.652-13.038-14.283-21.397-19.888-13.349-8.952-28.225-13.58-44.614-13.93z" fill="#896978"/><path d="M390.49 459.304v-170.3H262.805v13.861h113.269v147.858c-16.475 9.242-34.21 16.172-53.202 20.792-18.992 4.62-38.786 6.93-59.38 6.93-31.12 0-60.64-5.83-88.556-17.49-27.916-11.662-52.171-27.614-72.766-47.857-20.594-19.802-36.955-43.125-49.083-69.968-12.127-26.843-18.19-55.446-18.19-85.81 0-30.803 6.063-59.737 18.19-86.8 12.128-27.063 28.718-50.716 49.77-70.958 20.594-20.683 44.85-36.854 72.766-48.516 27.917-11.661 57.893-17.491 89.929-17.491 21.509 0 42.218 2.64 62.125 7.92 19.908 5.28 38.328 12.982 55.261 23.102l8.238-11.88a262.227 262.227 0 00-59.38-24.424c-20.823-5.72-42.905-8.58-66.244-8.58-33.866 0-65.674 6.27-95.421 18.812C140.384 51.046 114.527 67.878 92.56 89 70.134 110.563 52.515 135.756 39.7 164.58c-12.814 28.823-19.221 59.516-19.221 92.08s6.407 63.148 19.221 91.751S70.134 401.877 92.56 423c21.967 21.563 47.824 38.504 77.571 50.826 29.747 12.32 61.555 18.482 95.42 18.482 23.34 0 45.422-2.97 66.245-8.91 20.823-5.942 40.388-13.972 58.694-24.094zm19.135-425.75c21.51 0 40.96 5.83 58.35 17.492C485.368 62.708 498.41 78 507.106 96.922a52967.592 52967.592 0 01-106.061 40.924 13362.227 13362.227 0 00-106.746 41.586c-5.034-18.044-5.607-35.756-1.717-53.136 3.89-17.383 11.098-32.895 21.624-46.537 10.526-14.081 24.027-25.302 40.502-33.663 16.476-8.362 34.782-12.541 54.918-12.541zm90.615 208.584l-8.924-10.561c-10.526 10.122-22.883 17.932-37.07 23.434-14.187 5.5-29.06 8.25-44.621 8.25-25.628 0-48.167-6.601-67.617-19.802-19.45-13.202-33.752-30.363-42.905-51.486a10902.995 10902.995 0 01113.269-43.895 10941.893 10941.893 0 00113.267-43.896c-4.576-12.321-10.525-23.432-17.848-33.334-7.323-9.9-15.56-18.592-24.713-26.073-10.068-7.92-21.395-14.08-33.98-18.482-12.586-4.4-25.743-6.6-39.473-6.6-18.764 0-36.269 3.41-52.516 10.23-16.245 6.822-30.319 15.953-42.218 27.394-12.355 11.441-21.967 25.083-28.831 40.924-6.865 15.843-10.298 32.564-10.298 50.167 0 18.041 3.433 34.764 10.298 50.166 6.864 15.402 16.476 29.043 28.831 40.924 11.9 11.441 25.973 20.463 42.218 27.063 16.247 6.601 33.752 9.902 52.516 9.902 17.848 0 34.438-3.08 49.77-9.242 15.331-6.16 28.947-14.522 40.845-25.083zm147.592 148.168l.686 29.703 2.06 34.985h61.096V441.79H660.19V207.464h-67.96v13.862h53.544V350.04c0 14.081-3.204 26.953-9.61 38.614-6.408 11.662-14.646 21.673-24.714 30.033-10.526 8.802-22.54 15.513-36.04 20.133-13.501 4.62-27.803 6.93-42.905 6.93-20.136-.88-35.583-6.93-46.337-18.15-10.755-11.223-16.59-24.534-17.505-39.935V207.464H400.7v13.862h53.546v164.36c.915 22.002 8.352 39.823 22.31 53.465 13.958 13.642 33.294 20.463 58.006 20.463 25.63 0 48.626-6.27 68.992-18.812 20.364-12.542 35.124-29.374 44.277-50.496zm198.241-50.682v-47.525h-13.729v33.664h-214.18c37.527-37.405 73.453-74.04 107.776-109.904 34.324-35.864 70.25-72.499 107.776-109.903V92.095H620.91V68.992h-13.73v36.964h207.317c-37.528 37.404-73.454 74.04-107.778 109.903-34.323 35.864-70.248 72.5-107.776 109.904v13.86h247.131zm41.425-90.224c21.51 0 40.96 5.83 58.35 17.491 17.39 11.662 30.434 26.954 39.13 45.876a51513.045 51513.045 0 01-106.061 40.924 13409.198 13409.198 0 00-106.747 41.586c-5.034-18.042-5.606-35.754-1.716-53.136 3.89-17.383 11.098-32.894 21.624-46.536 10.526-14.082 24.027-25.303 40.502-33.664 16.476-8.36 34.78-12.541 54.918-12.541zm90.614 208.584l-8.924-10.56c-10.526 10.12-22.883 17.931-37.07 23.432-14.186 5.5-29.06 8.25-44.62 8.25-25.628 0-48.168-6.6-67.618-19.802-19.45-13.202-33.751-30.363-42.904-51.486a10941.893 10941.893 0 01113.267-43.895 10902.995 10902.995 0 00113.269-43.896c-4.576-12.32-10.525-23.432-17.848-33.333-7.323-9.901-15.561-18.593-24.713-26.073-10.068-7.922-21.395-14.082-33.981-18.483-12.585-4.4-25.743-6.6-39.472-6.6-18.764 0-36.269 3.41-52.516 10.23-16.247 6.822-30.319 15.953-42.218 27.394-12.357 11.441-21.967 25.083-28.832 40.926-6.864 15.84-10.297 32.563-10.297 50.165 0 18.043 3.433 34.764 10.297 50.166 6.865 15.402 16.475 29.043 28.832 40.924 11.899 11.443 25.971 20.463 42.218 27.064 16.247 6.6 33.752 9.901 52.516 9.901 17.848 0 34.438-3.08 49.77-9.24 15.33-6.162 28.945-14.522 40.844-25.084z" fill="#fff" fill-rule="nonzero"/></svg>